<?xml version="1.0" encoding="utf-8"?>
<!-- created with bpmn-js / http://bpmn.io -->
<!DOCTYPE svg PUBLIC "-//W3C//DTD SVG 1.1//EN" "http://www.w3.org/Graphics/SVG/1.1/DTD/svg11.dtd">
<svg xmlns="http://www.w3.org/2000/svg" xmlns:xlink="http://www.w3.org/1999/xlink" width="340" height="247" viewBox="155 58 340 247" version="1.1"><defs><pattern id="djs-grid-pattern-29178" width="10" height="10" patternUnits="userSpaceOnUse"><circle cx="0.5" cy="0.5" r="0.5" style="fill: rgb(204, 204, 204);"/></pattern></defs><g class="djs-group"><g class="djs-element djs-shape" data-element-id="TextAnnotation_Legende" style="display: block;" transform="matrix(1 0 0 1 180 100)"><g class="djs-visual"><rect x="0" y="0" width="280" height="25" rx="0" ry="0" style="stroke-linecap: round; stroke-linejoin: round; stroke: none; stroke-width: 2px; fill: none;"/><path d="m 0, 0 m 10,0 l -10,0 l 0,25 l 10,0" style="fill: none; stroke-linecap: round; stroke-linejoin: round; stroke: rgb(34, 36, 42); stroke-width: 2px;"/><text lineHeight="1.2" class="djs-label" style="font-family: Arial, sans-serif; font-size: 12px; font-weight: normal; fill: rgb(34, 36, 42);"><tspan x="7" y="17.799999999999997">LEGENDE:</tspan></text></g><rect class="djs-hit djs-hit-all" x="0" y="0" width="280" height="25" style="fill: none; stroke-opacity: 0; stroke: white; stroke-width: 15px;"/><rect x="-5" y="-5" rx="4" width="290" height="35" class="djs-outline" style="fill: none;"/></g></g><g class="djs-group"><g class="djs-element djs-shape" data-element-id="TextAnnotation_Violett" style="display: block;" transform="matrix(1 0 0 1 180 150)"><g class="djs-visual"><rect x="0" y="0" width="280" height="25" rx="0" ry="0" style="stroke-linecap: round; stroke-linejoin: round; stroke: none; stroke-width: 2px; fill: none;"/><path d="m 0, 0 m 10,0 l -10,0 l 0,25 l 10,0" style="fill: none; stroke-linecap: round; stroke-linejoin: round; stroke: rgb(91, 23, 109); stroke-width: 2px;"/><text lineHeight="1.2" class="djs-label" style="font-family: Arial, sans-serif; font-size: 12px; font-weight: normal; fill: rgb(91, 23, 109);"><tspan x="7" y="17.799999999999997">VIOLETT - Anpassungen (Qualifizierung durch IT)</tspan></text></g><rect class="djs-hit djs-hit-all" x="0" y="0" width="280" height="25" style="fill: none; stroke-opacity: 0; stroke: white; stroke-width: 15px;"/><rect x="-5" y="-5" rx="4" width="290" height="35" class="djs-outline" style="fill: none;"/></g></g><g class="djs-group"><g class="djs-element djs-shape" data-element-id="TextAnnotation_Orange" style="display: block;" transform="matrix(1 0 0 1 180 175)"><g class="djs-visual"><rect x="0" y="0" width="280" height="25" rx="0" ry="0" style="stroke-linecap: round; stroke-linejoin: round; stroke: none; stroke-width: 2px; fill: none;"/><path d="m 0, 0 m 10,0 l -10,0 l 0,25 l 10,0" style="fill: none; stroke-linecap: round; stroke-linejoin: round; stroke: rgb(107, 60, 0); stroke-width: 2px;"/><text lineHeight="1.2" class="djs-label" style="font-family: Arial, sans-serif; font-size: 12px; font-weight: normal; fill: rgb(107, 60, 0);"><tspan x="7" y="17.799999999999997">ORANGE - Anpassungen (keine Qualifizierung)</tspan></text></g><rect class="djs-hit djs-hit-all" x="0" y="0" width="280" height="25" style="fill: none; stroke-opacity: 0; stroke: white; stroke-width: 15px;"/><rect x="-5" y="-5" rx="4" width="290" height="35" class="djs-outline" style="fill: none;"/></g></g><g class="djs-group"><g class="djs-element djs-shape" data-element-id="TextAnnotation_Blau" style="display: block;" transform="matrix(1 0 0 1 180 200)"><g class="djs-visual"><rect x="0" y="0" width="280" height="25" rx="0" ry="0" style="stroke-linecap: round; stroke-linejoin: round; stroke: none; stroke-width: 2px; fill: none;"/><path d="m 0, 0 m 10,0 l -10,0 l 0,25 l 10,0" style="fill: none; stroke-linecap: round; stroke-linejoin: round; stroke: rgb(13, 67, 114); stroke-width: 2px;"/><text lineHeight="1.2" class="djs-label" style="font-family: Arial, sans-serif; font-size: 12px; font-weight: normal; fill: rgb(13, 67, 114);"><tspan x="7" y="17.799999999999997">BLAU - Anpassungen (Qualifizierung durch CSV)</tspan></text></g><rect class="djs-hit djs-hit-all" x="0" y="0" width="280" height="25" style="fill: none; stroke-opacity: 0; stroke: white; stroke-width: 15px;"/><rect x="-5" y="-5" rx="4" width="290" height="35" class="djs-outline" style="fill: none;"/></g></g><g class="djs-group"><g class="djs-element djs-shape" data-element-id="TextAnnotation_Weiss" style="display: block;" transform="matrix(1 0 0 1 180 125)"><g class="djs-visual"><rect x="0" y="0" width="280" height="25" rx="0" ry="0" style="stroke-linecap: round; stroke-linejoin: round; stroke: none; stroke-width: 2px; fill: none;"/><path d="m 0, 0 m 10,0 l -10,0 l 0,25 l 10,0" style="fill: none; stroke-linecap: round; stroke-linejoin: round; stroke: rgb(34, 36, 42); stroke-width: 2px;"/><text lineHeight="1.2" class="djs-label" style="font-family: Arial, sans-serif; font-size: 12px; font-weight: normal; fill: rgb(34, 36, 42);"><tspan x="7" y="17.799999999999997">WEISS - keine Anpassungen</tspan></text></g><rect class="djs-hit djs-hit-all" x="0" y="0" width="280" height="25" style="fill: none; stroke-opacity: 0; stroke: white; stroke-width: 15px;"/><rect x="-5" y="-5" rx="4" width="290" height="35" class="djs-outline" style="fill: none;"/></g></g><g class="djs-group"><g class="djs-element djs-shape" data-element-id="TextAnnotation_Gruen" style="display: block;" transform="matrix(1 0 0 1 180 225)"><g class="djs-visual"><rect x="0" y="0" width="280" height="25" rx="0" ry="0" style="stroke-linecap: round; stroke-linejoin: round; stroke: none; stroke-width: 2px; fill: none;"/><path d="m 0, 0 m 10,0 l -10,0 l 0,25 l 10,0" style="fill: none; stroke-linecap: round; stroke-linejoin: round; stroke: rgb(32, 80, 34); stroke-width: 2px;"/><text lineHeight="1.2" class="djs-label" style="font-family: Arial, sans-serif; font-size: 12px; font-weight: normal; fill: rgb(32, 80, 34);"><tspan x="7" y="17.799999999999997">GRÜN - Anpassungen (Qualifizierung durch Q&amp;V)</tspan></text></g><rect class="djs-hit djs-hit-all" x="0" y="0" width="280" height="25" style="fill: none; stroke-opacity: 0; stroke: white; stroke-width: 15px;"/><rect x="-5" y="-5" rx="4" width="290" height="35" class="djs-outline" style="fill: none;"/></g></g><g class="djs-group"><g class="djs-element djs-shape" data-element-id="TextAnnotation_Rot" style="display: block;" transform="matrix(1 0 0 1 180 250)"><g class="djs-visual"><rect x="0" y="0" width="280" height="25" rx="0" ry="0" style="stroke-linecap: round; stroke-linejoin: round; stroke: none; stroke-width: 2px; fill: none;"/><path d="m 0, 0 m 10,0 l -10,0 l 0,25 l 10,0" style="fill: none; stroke-linecap: round; stroke-linejoin: round; stroke: rgb(131, 19, 17); stroke-width: 2px;"/><text lineHeight="1.2" class="djs-label" style="font-family: Arial, sans-serif; font-size: 12px; font-weight: normal; fill: rgb(131, 19, 17);"><tspan x="7" y="17.799999999999997">ROT - Anpassungen (Qualifizierung Extern)</tspan></text></g><rect class="djs-hit djs-hit-all" x="0" y="0" width="280" height="25" style="fill: none; stroke-opacity: 0; stroke: white; stroke-width: 15px;"/><rect x="-5" y="-5" rx="4" width="290" height="35" class="djs-outline" style="fill: none;"/></g></g><g class="djs-group"><g class="djs-element djs-shape djs-frame" data-element-id="Group_Legend" style="display: block;" transform="matrix(1 0 0 1 160 63)"><g class="djs-visual"><rect x="0" y="0" width="330" height="237" rx="10" ry="10" style="stroke-linecap: round; stroke-linejoin: round; stroke: rgb(34, 36, 42); stroke-width: 1.5px; fill: none; stroke-dasharray: 10, 6, 0, 6; pointer-events: none;"/></g><rect class="djs-hit djs-hit-stroke" x="0" y="0" width="330" height="237" style="fill: none; stroke-opacity: 0; stroke: white; stroke-width: 15px;"/><rect x="-5" y="-5" rx="14" width="340" height="247" class="djs-outline" style="fill: none;"/></g></g><g class="djs-group"><g class="djs-element djs-shape" data-element-id="Group_03wrjki_label" style="display: block;" transform="matrix(1 0 0 1 431 83)"><g class="djs-visual"><text lineHeight="1.2" class="djs-label" style="font-family: Arial, sans-serif; font-size: 11px; font-weight: normal; fill: rgb(34, 36, 42);"><tspan x="0" y="9.899999999999999">Legend</tspan></text></g><rect class="djs-hit djs-hit-all" x="0" y="0" width="37" height="14" style="fill: none; stroke-opacity: 0; stroke: white; stroke-width: 15px;"/><rect x="-5" y="-5" rx="4" width="47" height="24" class="djs-outline" style="fill: none;"/></g></g></svg>